<svg width="154" height="28" viewBox="0 0 154 28" fill="none" xmlns="http://www.w3.org/2000/svg">
<path d="M4.84144 1.63636L9.76332 17.108H9.95224L14.8841 1.63636H19.6568L12.6369 22H7.0886L0.0587713 1.63636H4.84144ZM22.0282 22V6.72727H26.264V22H22.0282ZM24.1561 4.75852C23.5263 4.75852 22.9861 4.54972 22.5353 4.1321C22.0912 3.70786 21.8691 3.20076 21.8691 2.61079C21.8691 2.02746 22.0912 1.52699 22.5353 1.10938C22.9861 0.685132 23.5263 0.47301 24.1561 0.47301C24.7858 0.47301 25.3227 0.685132 25.7669 1.10938C26.2176 1.52699 26.443 2.02746 26.443 2.61079C26.443 3.20076 26.2176 3.70786 25.7669 4.1321C25.3227 4.54972 24.7858 4.75852 24.1561 4.75852ZM29.6571 22V6.72727H33.7637V9.39205H33.9228C34.2012 8.44413 34.6685 7.72822 35.3248 7.24432C35.981 6.75379 36.7367 6.50852 37.5918 6.50852C37.8039 6.50852 38.0326 6.52178 38.2779 6.54829C38.5231 6.57481 38.7386 6.61127 38.9242 6.65767V10.4162C38.7253 10.3565 38.4502 10.3035 38.0989 10.2571C37.7476 10.2107 37.4261 10.1875 37.1344 10.1875C36.5113 10.1875 35.9545 10.3234 35.464 10.5952C34.9801 10.8603 34.5956 11.2315 34.3105 11.7088C34.0321 12.1861 33.8929 12.7363 33.8929 13.3594V22H29.6571ZM50.0034 6.72727V9.90909H40.8059V6.72727H50.0034ZM42.894 3.06818H47.1298V17.3068C47.1298 17.6979 47.1895 18.0028 47.3088 18.2216C47.4281 18.4337 47.5938 18.5829 47.8059 18.669C48.0247 18.7552 48.2766 18.7983 48.5616 18.7983C48.7605 18.7983 48.9593 18.7817 49.1582 18.7486C49.3571 18.7088 49.5095 18.679 49.6156 18.6591L50.2818 21.8111C50.0697 21.8774 49.7714 21.9536 49.3869 22.0398C49.0024 22.1326 48.5351 22.1889 47.9849 22.2088C46.9641 22.2486 46.0692 22.1127 45.3002 21.8011C44.5379 21.4896 43.9447 21.0057 43.5204 20.3494C43.0962 19.6932 42.8874 18.8646 42.894 17.8636V3.06818ZM62.5566 15.4972V6.72727H66.7924V22H62.7257V19.2259H62.5666C62.2219 20.1207 61.6485 20.84 60.8464 21.3835C60.051 21.9271 59.0798 22.1989 57.9331 22.1989C56.9122 22.1989 56.014 21.9669 55.2385 21.5028C54.4629 21.0388 53.8564 20.3793 53.4189 19.5241C52.988 18.669 52.7692 17.6449 52.7626 16.4517V6.72727H56.9984V15.696C57.005 16.5975 57.247 17.3101 57.7243 17.8338C58.2015 18.3575 58.8412 18.6193 59.6433 18.6193C60.1537 18.6193 60.631 18.5033 61.0751 18.2713C61.5192 18.0327 61.8772 17.6813 62.149 17.2173C62.4274 16.7533 62.5633 16.1799 62.5566 15.4972ZM74.5357 22.2884C73.5613 22.2884 72.6929 22.1193 71.9306 21.7812C71.1683 21.4366 70.565 20.9295 70.1209 20.2599C69.6834 19.5838 69.4647 18.742 69.4647 17.7344C69.4647 16.8859 69.6204 16.1733 69.932 15.5966C70.2435 15.0199 70.6678 14.5559 71.2047 14.2045C71.7417 13.8532 72.3515 13.5881 73.0343 13.4091C73.7237 13.2301 74.4462 13.1042 75.2019 13.0312C76.0901 12.9384 76.806 12.8523 77.3496 12.7727C77.8932 12.6866 78.2876 12.5606 78.5328 12.3949C78.7781 12.2292 78.9007 11.9839 78.9007 11.6591V11.5994C78.9007 10.9697 78.7019 10.4825 78.3042 10.1378C77.9131 9.79309 77.3562 9.62074 76.6337 9.62074C75.8714 9.62074 75.2649 9.78977 74.8141 10.1278C74.3633 10.4593 74.065 10.8769 73.9192 11.3807L70.0016 11.0625C70.2005 10.1345 70.5916 9.33239 71.1749 8.65625C71.7582 7.97348 72.5106 7.44981 73.432 7.08523C74.36 6.71401 75.4339 6.52841 76.6536 6.52841C77.5021 6.52841 78.3141 6.62784 79.0897 6.8267C79.8719 7.02557 80.5646 7.33381 81.1678 7.75142C81.7776 8.16903 82.2582 8.70597 82.6096 9.36222C82.9609 10.0118 83.1365 10.7907 83.1365 11.6989V22H79.1195V19.8821H79.0002C78.7549 20.3594 78.4268 20.7803 78.0158 21.1449C77.6048 21.5028 77.111 21.7846 76.5343 21.9901C75.9576 22.1889 75.2914 22.2884 74.5357 22.2884ZM75.7488 19.3651C76.3719 19.3651 76.9221 19.2424 77.3993 18.9972C77.8766 18.7453 78.2511 18.4072 78.5229 17.983C78.7947 17.5587 78.9306 17.0781 78.9306 16.5412V14.9205C78.798 15.0066 78.6157 15.0862 78.3837 15.1591C78.1583 15.2254 77.9031 15.2884 77.6181 15.348C77.333 15.401 77.048 15.4508 76.763 15.4972C76.4779 15.5369 76.2194 15.5734 75.9874 15.6065C75.4902 15.6795 75.056 15.7955 74.6848 15.9545C74.3136 16.1136 74.0253 16.3291 73.8198 16.6009C73.6143 16.866 73.5115 17.1974 73.5115 17.5952C73.5115 18.1719 73.7203 18.6127 74.138 18.9176C74.5622 19.2159 75.0991 19.3651 75.7488 19.3651ZM90.6586 1.63636V22H86.4228V1.63636H90.6586ZM107.634 8.21875C107.495 7.73485 107.299 7.30729 107.047 6.93608C106.796 6.55824 106.487 6.24006 106.123 5.98153C105.765 5.71638 105.354 5.5142 104.89 5.375C104.432 5.2358 103.925 5.16619 103.368 5.16619C102.328 5.16619 101.413 5.42472 100.624 5.94176C99.8419 6.45881 99.2321 7.21117 98.7946 8.19886C98.3571 9.17992 98.1383 10.3797 98.1383 11.7983C98.1383 13.2169 98.3538 14.4233 98.7846 15.4176C99.2155 16.4119 99.8253 17.1709 100.614 17.6946C101.403 18.2116 102.334 18.4702 103.408 18.4702C104.383 18.4702 105.215 18.2978 105.904 17.9531C106.6 17.6018 107.13 17.108 107.495 16.4716C107.866 15.8352 108.052 15.0829 108.052 14.2145L108.927 14.3438H103.677V11.1023H112.198V13.6676C112.198 15.4574 111.82 16.9953 111.064 18.2812C110.309 19.5606 109.268 20.5483 107.942 21.2443C106.617 21.9337 105.099 22.2784 103.388 22.2784C101.479 22.2784 99.8021 21.8575 98.3571 21.0156C96.912 20.1671 95.7851 18.964 94.9764 17.4062C94.1743 15.8419 93.7733 13.9858 93.7733 11.8381C93.7733 10.1875 94.0119 8.71591 94.4892 7.42329C94.9731 6.12405 95.6492 5.02367 96.5176 4.12216C97.3859 3.22064 98.3968 2.53456 99.5502 2.06392C100.704 1.59328 101.953 1.35795 103.299 1.35795C104.452 1.35795 105.526 1.52699 106.52 1.86506C107.515 2.1965 108.396 2.66714 109.165 3.27699C109.941 3.88684 110.574 4.61269 111.064 5.45454C111.555 6.28977 111.87 7.21117 112.009 8.21875H107.634ZM117.968 27.7273C117.431 27.7273 116.927 27.6842 116.456 27.598C115.992 27.5185 115.608 27.4157 115.303 27.2898L116.257 24.1278C116.754 24.2803 117.202 24.3632 117.6 24.3764C118.004 24.3897 118.352 24.2969 118.644 24.098C118.942 23.8991 119.184 23.5611 119.369 23.0838L119.618 22.4375L114.139 6.72727H118.594L121.756 17.9432H121.915L125.107 6.72727H129.591L123.655 23.6506C123.37 24.4725 122.982 25.1884 122.492 25.7983C122.008 26.4148 121.395 26.8887 120.652 27.2202C119.91 27.5582 119.015 27.7273 117.968 27.7273ZM131.759 22V6.72727H135.796V9.42188H135.975C136.293 8.52699 136.823 7.82102 137.566 7.30398C138.308 6.78693 139.196 6.52841 140.23 6.52841C141.278 6.52841 142.169 6.79025 142.905 7.31392C143.641 7.83097 144.131 8.53362 144.377 9.42188H144.536C144.847 8.54688 145.411 7.84754 146.226 7.32386C147.048 6.79356 148.019 6.52841 149.139 6.52841C150.565 6.52841 151.721 6.98248 152.61 7.89062C153.504 8.79214 153.952 10.0715 153.952 11.7287V22H149.726V12.5639C149.726 11.7154 149.501 11.0791 149.05 10.6548C148.599 10.2306 148.036 10.0185 147.36 10.0185C146.591 10.0185 145.991 10.2637 145.56 10.7543C145.129 11.2382 144.914 11.8778 144.914 12.6733V22H140.807V12.4744C140.807 11.7254 140.592 11.1288 140.161 10.6847C139.736 10.2405 139.176 10.0185 138.48 10.0185C138.01 10.0185 137.585 10.1378 137.208 10.3764C136.836 10.6084 136.541 10.9366 136.323 11.3608C136.104 11.7784 135.994 12.2689 135.994 12.8324V22H131.759Z" fill="white"/>
</svg>
