<svg width="18" height="18" viewBox="0 0 18 18" fill="none" xmlns="http://www.w3.org/2000/svg">
<path d="M9.0625 0.0625C7.29483 0.0625 5.56686 0.586675 4.0971 1.56874C2.62733 2.55081 1.48179 3.94665 0.805331 5.57977C0.128872 7.21288 -0.0481198 9.00991 0.296736 10.7436C0.641591 12.4773 1.49281 14.0698 2.74274 15.3198C3.99267 16.5697 5.58518 17.4209 7.31888 17.7658C9.05259 18.1106 10.8496 17.9336 12.4827 17.2572C14.1159 16.5807 15.5117 15.4352 16.4938 13.9654C17.4758 12.4956 18 10.7677 18 9C17.9975 6.6304 17.0551 4.35856 15.3795 2.683C13.7039 1.00743 11.4321 0.0650023 9.0625 0.0625ZM9.0625 16.5625C7.56678 16.5625 6.10465 16.119 4.861 15.288C3.61736 14.457 2.64805 13.2759 2.07566 11.894C1.50328 10.5122 1.35351 8.99161 1.64532 7.52463C1.93712 6.05765 2.65737 4.71014 3.71501 3.65251C4.77264 2.59487 6.12015 1.87461 7.58713 1.58281C9.05411 1.29101 10.5747 1.44077 11.9565 2.01316C13.3384 2.58555 14.5195 3.55485 15.3505 4.7985C16.1815 6.04215 16.625 7.50428 16.625 9C16.6227 11.005 15.8252 12.9272 14.4075 14.345C12.9897 15.7627 11.0675 16.5602 9.0625 16.5625ZM13.1875 9C13.1875 9.18234 13.1151 9.35721 12.9861 9.48614C12.8572 9.61507 12.6823 9.6875 12.5 9.6875H9.75V12.4375C9.75 12.6198 9.67757 12.7947 9.54864 12.9236C9.41971 13.0526 9.24484 13.125 9.0625 13.125C8.88017 13.125 8.7053 13.0526 8.57637 12.9236C8.44744 12.7947 8.375 12.6198 8.375 12.4375V9.6875H5.625C5.44267 9.6875 5.2678 9.61507 5.13887 9.48614C5.00994 9.35721 4.9375 9.18234 4.9375 9C4.9375 8.81766 5.00994 8.6428 5.13887 8.51386C5.2678 8.38493 5.44267 8.3125 5.625 8.3125H8.375V5.5625C8.375 5.38016 8.44744 5.2053 8.57637 5.07636C8.7053 4.94743 8.88017 4.875 9.0625 4.875C9.24484 4.875 9.41971 4.94743 9.54864 5.07636C9.67757 5.2053 9.75 5.38016 9.75 5.5625V8.3125H12.5C12.6823 8.3125 12.8572 8.38493 12.9861 8.51386C13.1151 8.6428 13.1875 8.81766 13.1875 9Z" fill="#E23728"/>
</svg>
